


<svg version="1.1" id="레이어_1" xmlns="http://www.w3.org/2000/svg" xmlns:xlink="http://www.w3.org/1999/xlink" x="0px" y="0px" width="1000px" height="221px" viewBox="0 0 1000 221" enable-background="new 0 0 1000 221" xml:space="preserve">
<g>
	<g>
		<g>
			<g>
				<g>
					<path fill="#0055A1" d="M276.64,29.377c-3.757-0.674-10.067-4.973-12.121-8.609c-1.613,3.802-8.035,8.733-12.307,9.875
						l-3.378-4.309c11.145-4.003,12.784-10.206,12.784-12.209h-9.612v-4.65h24.845v4.65h-9.662c0,2.003,3.639,8.6,12.102,10.744
						L276.64,29.377z M257.258,50.899V33.411h31.602v17.488H257.258z M257.439,5.616v-4.65h14.337v4.65H257.439z M283.672,38.235
						h-21.21v7.874h21.21V38.235z M288.859,18.08v12.753h-5.188V0.965h5.188v12.061h6.592v5.053H288.859z"></path>
					<path fill="#0055A1" d="M316.076,51.325h-6.732v-7.253h6.732V51.325z M309.888,23.49V1.479h5.672V23.49l-1.601,14.956h-2.45
						L309.888,23.49z"></path>
					<path fill="#0055A1" d="M357.332,25.773v-4.475h20.04v-5.215h5.378v5.215h20.046v4.475H357.332z M399.79,15.158l-2.781,4.003
						c-7.365-0.667-14.004-4.412-16.958-7.919c-2.79,4.026-10.179,7.17-16.988,8.109l-2.793-4.042
						c4.255-0.519,14.436-3.335,16.793-7.975h-14.357V2.678h34.738v4.656h-14.403C385.487,11.876,394.835,14.79,399.79,15.158z
						 M360.889,38.582v-4.147h38.276v4.147H360.889z M380.167,52.37c-8.792,0-16.971-1.559-16.971-6.234
						c0-4.565,8.446-6.182,16.971-6.182c8.304,0,16.893,1.532,16.893,6.182C397.06,50.86,387.948,52.37,380.167,52.37z
						 M369.188,32.259v-4.057h21.508v4.057H369.188z M380.167,44.012c-4.816,0-10.651,0.06-10.651,2.196
						c0,2.024,5.835,2.063,10.651,2.063c4.35,0,10.586-0.04,10.586-2.063C390.754,44.072,384.677,44.012,380.167,44.012z"></path>
					<path fill="#0055A1" d="M408.589,31.577v-4.904h45.478v4.904H408.589z M431.292,22.453c-11.124,0-17.31-4.493-17.31-10.789
						c0-6.226,6.147-11.033,17.31-11.033c11.277,0,17.3,4.753,17.3,11.033C448.592,17.959,442.615,22.453,431.292,22.453z
						 M414.459,50.364V36h5.144v9.521h29.967v4.842H414.459z M431.34,5.105c-7.123,0-11.823,2.746-11.823,6.486
						c0,3.788,4.954,6.256,11.775,6.256c6.973,0,11.914-2.351,11.914-6.145C443.206,7.904,438.455,5.105,431.34,5.105z"></path>
					<path fill="#0055A1" d="M477.976,31.577v-4.904h45.464v4.904H477.976z M500.654,22.453c-11.112,0-17.31-4.493-17.31-10.789
						c0-6.226,6.149-11.033,17.31-11.033c11.29,0,17.306,4.753,17.306,11.033C517.96,17.959,511.968,22.453,500.654,22.453z
						 M483.803,50.364V36h5.161v9.521h29.994v4.842H483.803z M500.712,5.105c-7.129,0-11.835,2.746-11.835,6.486
						c0,3.788,4.983,6.256,11.777,6.256c6.981,0,11.926-2.351,11.926-6.145C512.58,7.904,507.85,5.105,500.712,5.105z"></path>
					<path fill="#0055A1" d="M528.273,13.287V8.891h23.1v4.396H528.273z M539.745,31.709c-6.27,0-10.388-3.356-10.388-8.124
						c0-4.712,4.118-7.879,10.429-7.879c6.397,0,10.417,3.167,10.417,7.943C550.203,28.354,546.15,31.709,539.745,31.709z
						 M533.744,5.899v-4.42h11.988v4.42H533.744z M551.994,52.467c-11.385,0-17.629-4.08-17.629-9.528
						c0-5.451,6.364-9.166,17.72-9.166c11.43,0,17.575,3.877,17.575,9.348C569.66,48.575,563.44,52.467,551.994,52.467z
						 M539.786,19.92c-3.568,0-5.33,1.433-5.33,3.729c0,2.376,1.762,3.865,5.33,3.865c3.66,0,5.347-1.489,5.347-3.865
						C545.133,21.353,543.446,19.92,539.786,19.92z M552.019,38.165c-7.112,0-12.025,1.619-12.025,4.838
						c0,3.132,4.858,4.942,12.025,4.942c6.98,0,11.807-1.81,11.807-4.888C563.825,39.784,559.119,38.165,552.019,38.165z
						 M564.854,32.567V18.815h-5.339v12.646h-4.846V1.815h4.846v11.773h5.339V0.965h4.843v31.602H564.854z"></path>
				</g>
			</g>
		</g>
	</g>
	<g>
		<g>
			<g>
				<path fill="#FFFFFF" d="M51.34,21.549c-5.63,2.802-9.869,7.677-11.854,13.653L1.718,148.762
					c-2.001,5.946-1.534,12.394,1.291,18.038c2.82,5.607,7.706,9.83,13.642,11.811l123.88,41.597
					c6.048,1.985,12.426,1.556,18.065-1.286c5.666-2.853,9.871-7.675,11.846-13.663l37.805-113.541
					c4.123-12.342-2.622-25.761-14.979-29.882L69.378,20.228C63.355,18.261,56.974,18.698,51.34,21.549"></path>
				<path fill="#0098D9" d="M111.891,130.6c-6.737,7.534-15.144,13.567-24.834,17.322l-5.635,2.171V97.479l5.545,2.142
					c9.741,3.72,18.15,9.78,24.924,17.256c4.805-7.762,7.807-16.739,8.403-26.49c1.532-25.259-14.277-48.379-35.973-56.425
					l-17.879-5.992c-8.084-2.682-16.657,1.789-19.345,9.828L9.192,151.425c-2.661,8.072,1.849,16.847,9.941,19.515l85.983,28.716
					c8.794-9.325,14.465-21.674,15.28-35.465C121.165,151.908,117.966,140.33,111.891,130.6 M62.146,153.335h-8.517V94.353h8.517
					V153.335z"></path>
				<path fill="#E63C2F" d="M106.918,123.727c-4.789-5.641-10.583-10.339-17.3-13.79v27.717
					C96.336,134.177,102.152,129.4,106.918,123.727"></path>
				<path fill="#004B9D" d="M190.528,69.428L111.61,43.057c10.605,11.596,17.102,26.991,17.102,43.892
					c0.037,13.326-4.123,26.125-11.38,36.778c7.274,10.648,11.492,23.431,11.492,36.779c0.029,15.945-5.688,30.618-15.243,41.965
					l29.648,9.9c8.097,2.688,16.651-1.737,19.312-9.825l37.927-113.591C203.145,80.872,198.617,72.118,190.528,69.428
					 M169.612,153.141l-10.64,0.037l-21.921-29.509l22.252-29.481l10.766-0.04l-22.331,29.578L169.612,153.141z"></path>
			</g>
		</g>
	</g>
	<g>
		<g>
			<rect x="257.258" y="75.655" fill="#0055A1" width="20.805" height="124.186"></rect>
		</g>
		<g>
			<path fill="#0055A1" d="M306.828,75.641v124.15h37.848c32.146-0.05,47.348-11.396,47.389-34.1l0,0
				c-0.01-14.242-8.088-25.026-21.41-29.046l0,0l-1.214-0.368l1.176-0.492c12.387-5.211,18.334-14.192,18.363-27.667l0,0
				c-0.029-21.223-14.5-32.417-43.812-32.477l0,0H306.828z M341.084,144.907c14.833,0.033,29.115,2.365,29.148,19.229l0,0
				c0.008,6.087-2.091,10.979-6.61,13.845l0,0c-4.524,2.824-11.331,4.103-20.853,4.103l0,0h-15.133l0,0v-37.177H341.084
				 M347.91,93.351c5.985,0.017,20.231,2.053,20.271,16.487l0,0c0.015,7.921-3.176,12.408-8.432,14.749l0,0
				c-5.198,2.295-12.371,2.617-20.385,2.617l0,0h-11.728l0,0V93.351H347.91"></path>
		</g>
	</g>
	<g>
		<path fill="#0055A1" d="M508.635,75.641L508.635,75.641c-6.575,6.854-55.874,58.886-55.874,58.886s53.497,58.002,60.254,65.264
			h-29.001l0,0c-2.722-3.102-48.551-55.938-48.551-55.938v55.988h-20.811V75.655h20.811v50.229c0,0,43.745-47.458,46.347-50.244
			H508.635z"></path>
	</g>
	<path fill="#0055A1" d="M743.231,146.942v12.729h-50.517v-12.704h-16.504v52.659h83.793v-52.684H743.231z M743.231,186.74h-50.509
		v-15.077h50.509V186.74z M710.409,131.307c6.059-4.603,10.049-10.876,11.575-18.134h21.334v26.979h16.619V75.618h-16.619v25.563
		h-21.173c-1.179-7.689-4.938-14.038-11.182-18.888c-6.349-4.89-13.8-7.392-22.29-7.392c-9.143,0-17.165,3.019-24.104,8.961
		c-6.905,5.988-10.429,13.601-10.429,22.724c0,9.069,3.523,16.666,10.429,22.674c6.939,6.063,14.962,9.048,24.104,9.048
		C696.949,138.308,704.227,135.976,710.409,131.307z M675.941,120.642c-3.346-3.813-4.975-8.418-4.975-13.926
		c0-5.519,1.688-10.111,5.086-13.748c3.383-3.653,7.539-5.473,12.621-5.473c5.405,0,9.553,1.82,12.7,5.448
		c3.139,3.662,4.677,8.238,4.677,13.773c0,5.515-1.571,10.113-4.805,13.95c-3.288,3.801-7.485,5.657-12.895,5.657
		C683.418,126.323,679.324,124.467,675.941,120.642z M621.711,75.701v124.14h16.624V75.701H621.711z M538.12,90.938h43.466
		l0.029,7.156l-0.029,2.31c-0.607,29.906-21.545,54.826-49.641,61.438l-0.694,0.161l8.478,10.479l0.306-0.082
		c31.941-9.354,58.358-39.071,58.358-71.769V78.889H538.12V90.938z"></path>
	<polygon fill="#0055A1" points="809.28,159.286 792.508,159.286 792.508,199.386 876.26,199.386 876.26,187.406 809.28,187.406 	
		"></polygon>
	<g>
		<path fill="#0055A1" d="M859.971,80.122c-7.729-5.271-16.954-7.95-27.776-7.95c-10.813,0-20.114,2.68-27.806,7.95
			c-7.767,5.308-11.69,12.768-11.674,22.242c-0.017,9.333,3.924,16.731,11.674,21.983c7.691,5.256,16.992,7.891,27.806,7.891
			c10.822,0,20.048-2.635,27.776-7.891c7.787-5.252,11.683-12.65,11.683-21.983C871.653,92.889,867.758,85.429,859.971,80.122z
			 M848.355,115.373c-4.21,3.44-9.557,5.111-16.161,5.111c-6.529,0-11.831-1.671-16.028-5.111c-4.168-3.418-6.27-7.669-6.27-13.01
			c0-5.306,2.102-9.708,6.27-13.326c4.197-3.628,9.499-5.477,16.028-5.477c6.604,0,11.927,1.849,16.132,5.477
			c4.227,3.619,6.248,8.021,6.248,13.326C854.574,107.704,852.553,111.955,848.355,115.373z"></path>
	</g>
	<rect x="776.633" y="138.477" fill="#0055A1" width="110.523" height="12.985"></rect>
	<g>
		<path fill="#0055A1" d="M985.982,159.72c-7.447-4.42-16.293-6.591-26.66-6.591c-10.417,0-19.3,2.171-26.682,6.591
			c-7.406,4.334-11.103,10.422-11.103,18.2c0,7.671,3.696,13.68,11.103,18.051c7.382,4.301,16.265,6.45,26.682,6.45
			c10.367,0,19.213-2.149,26.66-6.45c7.345-4.371,11.017-10.38,11.017-18.051C996.999,170.142,993.327,164.054,985.982,159.72z
			 M974.966,187.477c-4.069,2.522-9.283,3.783-15.656,3.783c-6.273,0-11.476-1.261-15.562-3.783
			c-4.035-2.515-6.087-5.683-6.087-9.557c0-3.941,2.052-7.191,6.087-9.838c4.086-2.688,9.288-4.028,15.562-4.028
			c6.373,0,11.587,1.34,15.656,4.028c4.065,2.646,6.1,5.896,6.1,9.838C981.065,181.794,979.031,184.962,974.966,187.477z"></path>
	</g>
	<rect x="902.557" y="77.357" fill="#0055A1" width="37.569" height="11.139"></rect>
	<polygon fill="#0055A1" points="984.576,75.792 984.576,104.427 975.21,104.427 975.21,75.792 959.322,75.792 959.322,145.933 
		975.21,145.933 975.21,115.588 984.576,115.588 984.576,150.755 1000.493,150.755 1000.493,75.792 	"></polygon>
	<g>
		<path fill="#0055A1" d="M953.641,92.538h-57.709v11.06h12.142c-7.051,4.549-11.641,11.726-11.641,19.963
			c0,13.755,12.749,24.879,28.422,24.879c15.764,0,28.509-11.124,28.509-24.879c0-8.237-4.603-15.414-11.657-19.963h11.935V92.538z
			 M924.854,138.419c-7.432,0-13.511-6.679-13.511-14.858c0-8.204,6.079-14.858,13.511-14.858c7.493,0,13.547,6.654,13.547,14.858
			C938.401,131.74,932.348,138.419,924.854,138.419z"></path>
	</g>
</g>
</svg>
